<svg width="170" height="48" viewBox="0 0 170 48" fill="none" xmlns="http://www.w3.org/2000/svg">
<g clip-path="url(#clip0_26014_12142)">
<g clip-path="url(#clip1_26014_12142)">
<path d="M0 36.7399V0H15.5045C18.2883 0 20.6182 0.388687 22.4943 1.16606C24.3824 1.94344 25.7985 3.03176 26.7426 4.43103C27.6988 5.83031 28.1769 7.45084 28.1769 9.29262C28.1769 10.6919 27.8803 11.9417 27.2873 13.042C26.6942 14.1303 25.8772 15.0332 24.8363 15.7508C23.7954 16.4684 22.5911 16.9707 21.2234 17.2577V17.6165C22.7242 17.6883 24.1101 18.0889 25.381 18.8184C26.6639 19.548 27.6927 20.5645 28.4673 21.8681C29.242 23.1598 29.6293 24.6906 29.6293 26.4606C29.6293 28.434 29.1209 30.198 28.1042 31.7528C27.0875 33.2955 25.617 34.5154 23.6925 35.4124C21.7681 36.2974 19.4321 36.7399 16.6846 36.7399H0ZM8.98682 29.5821H14.5423C16.491 29.5821 17.9252 29.2173 18.8451 28.4878C19.7771 27.7582 20.243 26.7417 20.243 25.4381C20.243 24.4933 20.0191 23.68 19.5713 22.9983C19.1235 22.3047 18.488 21.7725 17.665 21.4017C16.842 21.019 15.8555 20.8277 14.7057 20.8277H8.98682V29.5821ZM8.98682 15.105H13.9613C14.9417 15.105 15.8132 14.9435 16.5757 14.6206C17.3382 14.2977 17.9313 13.8313 18.3549 13.2213C18.7906 12.6114 19.0085 11.8759 19.0085 11.0148C19.0085 9.78296 18.5667 8.81423 17.6832 8.10861C16.7996 7.403 15.6074 7.05019 14.1066 7.05019H8.98682V15.105Z" fill="#0D0D0D"/>
<path d="M46.9856 37.2602C44.0687 37.2602 41.5512 36.6921 39.4331 35.5559C37.3271 34.4078 35.7052 32.7753 34.5675 30.6585C33.4419 28.5296 32.8791 26.0002 32.8791 23.0701C32.8791 20.2237 33.4479 17.7361 34.5856 15.6073C35.7234 13.4665 37.3271 11.8041 39.3968 10.6201C41.4665 9.42417 43.9053 8.82619 46.7133 8.82619C48.6983 8.82619 50.5138 9.13116 52.1599 9.7411C53.8059 10.351 55.2281 11.254 56.4263 12.45C57.6246 13.6459 58.5565 15.1229 59.2222 16.881C59.8879 18.6271 60.2208 20.6303 60.2208 22.8907V25.0793H35.9836V19.9845H51.9602C51.9481 19.0517 51.7241 18.2205 51.2884 17.4909C50.8527 16.7614 50.2536 16.1933 49.4911 15.7867C48.7406 15.3681 47.8752 15.1588 46.8949 15.1588C45.9024 15.1588 45.0128 15.3801 44.226 15.8226C43.4393 16.2531 42.816 16.8451 42.3561 17.5986C41.8961 18.3401 41.6541 19.1832 41.6299 20.128V25.3125C41.6299 26.4367 41.8538 27.4234 42.3016 28.2725C42.7494 29.1097 43.3849 29.7615 44.2079 30.2279C45.0309 30.6943 46.0113 30.9275 47.149 30.9275C47.9358 30.9275 48.6499 30.8199 49.2913 30.6046C49.9328 30.3894 50.4835 30.0724 50.9435 29.6538C51.4034 29.2353 51.7483 28.721 51.9783 28.1111L60.13 28.3443C59.7911 30.1502 59.0467 31.7229 57.8969 33.0623C56.7592 34.3899 55.2644 35.4244 53.4126 36.1659C51.5607 36.8954 49.4184 37.2602 46.9856 37.2602Z" fill="#0D0D0D"/>
<path d="M77.7905 37.2602C74.8735 37.2602 72.356 36.6921 70.2379 35.5559C68.1319 34.4078 66.51 32.7753 65.3723 30.6585C64.2467 28.5296 63.6839 26.0002 63.6839 23.0701C63.6839 20.2237 64.2527 17.7361 65.3905 15.6073C66.5282 13.4665 68.1319 11.8041 70.2016 10.6201C72.2713 9.42417 74.7101 8.82619 77.5181 8.82619C79.5031 8.82619 81.3186 9.13116 82.9647 9.7411C84.6108 10.351 86.0329 11.254 87.2312 12.45C88.4294 13.6459 89.3614 15.1229 90.0271 16.881C90.6927 18.6271 91.0256 20.6303 91.0256 22.8907V25.0793H66.7884V19.9845H82.765C82.7529 19.0517 82.529 18.2205 82.0932 17.4909C81.6575 16.7614 81.0584 16.1933 80.2959 15.7867C79.5455 15.3681 78.6801 15.1588 77.6997 15.1588C76.7072 15.1588 75.8176 15.3801 75.0309 15.8226C74.2441 16.2531 73.6208 16.8451 73.1609 17.5986C72.7009 18.3401 72.4589 19.1832 72.4347 20.128V25.3125C72.4347 26.4367 72.6586 27.4234 73.1064 28.2725C73.5542 29.1097 74.1897 29.7615 75.0127 30.2279C75.8357 30.6943 76.8161 30.9275 77.9538 30.9275C78.7406 30.9275 79.4547 30.8199 80.0962 30.6046C80.7376 30.3894 81.2884 30.0724 81.7483 29.6538C82.2082 29.2353 82.5532 28.721 82.7831 28.1111L90.9348 28.3443C90.5959 30.1502 89.8516 31.7229 88.7017 33.0623C87.564 34.3899 86.0692 35.4244 84.2174 36.1659C82.3656 36.8954 80.2232 37.2602 77.7905 37.2602Z" fill="#0D0D0D"/>
<path d="M104.438 0V36.7399H95.5598V0H104.438Z" fill="#0D0D0D"/>
<path d="M115.517 47.073C114.452 47.073 113.447 46.9893 112.503 46.8219C111.559 46.6664 110.748 46.4571 110.07 46.194L112.031 39.8255C112.903 40.1125 113.689 40.28 114.391 40.3278C115.105 40.3756 115.717 40.262 116.225 39.9869C116.745 39.7238 117.145 39.2514 117.423 38.5697L117.768 37.7445L107.855 9.18498H117.151L122.289 28.8466H122.579L127.79 9.18498H137.14L126.628 39.377C126.12 40.8839 125.399 42.2114 124.467 43.3596C123.548 44.5196 122.355 45.4286 120.891 46.0863C119.438 46.7441 117.647 47.073 115.517 47.073Z" fill="#0D0D0D"/>
<path d="M147.876 15.6525C152.33 19.0969 154.46 24.1997 155.428 27.1338C156.513 24.3783 156.942 19.1354 156.721 16.8391C156.721 16.8391 162.144 12.438 153.623 6.69738C145.102 0.956766 142.647 12.2082 147.876 15.6525Z" fill="#85AFFF"/>
<path fill-rule="evenodd" clip-rule="evenodd" d="M146.133 45.121L167.048 21.3931C174.988 11.06 162.206 -4.63096 154.654 1.30101C153.949 2.03445 153.158 3.92328 153.35 7.08387C153.491 9.42061 154.169 12.4525 155.816 16.2266C156.804 19.8356 156.438 23.6988 155.324 27.5165C153.429 34.0084 149.37 40.3683 146.133 45.121Z" fill="#1E69FE"/>
</g>
</g>
<defs>
<clipPath id="clip0_26014_12142">
<rect width="169.556" height="47.073" fill="white"/>
</clipPath>
<clipPath id="clip1_26014_12142">
<rect width="169.556" height="47.073" fill="white"/>
</clipPath>
</defs>
</svg>
